<svg id="Layer_64" data-name="Layer 64" xmlns="http://www.w3.org/2000/svg" viewBox="0 0 24 24"><defs><style>.cls-1,.cls-14{fill:#f98012;}.cls-11,.cls-19,.cls-2,.cls-25{fill:#fff;}.cls-2{opacity:0.7;}.cls-2,.cls-21,.cls-23,.cls-5,.cls-6{isolation:isolate;}.cls-3,.cls-5,.cls-6{opacity:0.3;}.cls-12,.cls-13,.cls-22,.cls-27,.cls-4,.cls-5,.cls-6,.cls-7,.cls-8,.cls-9{fill:none;}.cls-4,.cls-5,.cls-6,.cls-7,.cls-8{stroke:#000;}.cls-10,.cls-18,.cls-19,.cls-22,.cls-4,.cls-9{stroke-miterlimit:10;}.cls-10,.cls-11,.cls-12,.cls-14,.cls-15,.cls-16,.cls-18,.cls-19,.cls-24,.cls-25,.cls-26,.cls-27,.cls-28,.cls-4,.cls-5,.cls-8,.cls-9{stroke-width:0.05px;}.cls-11,.cls-12,.cls-13,.cls-14,.cls-15,.cls-16,.cls-22,.cls-26,.cls-27,.cls-28,.cls-5,.cls-6,.cls-7,.cls-8{stroke-linecap:round;}.cls-11,.cls-12,.cls-13,.cls-14,.cls-15,.cls-16,.cls-24,.cls-25,.cls-26,.cls-27,.cls-28,.cls-5,.cls-6,.cls-7,.cls-8{stroke-linejoin:round;}.cls-13,.cls-22,.cls-6{stroke-width:0.1px;}.cls-7{stroke-width:0.05px;}.cls-10,.cls-11,.cls-12,.cls-13,.cls-14,.cls-15,.cls-16,.cls-18,.cls-19,.cls-22,.cls-24,.cls-25,.cls-26,.cls-28,.cls-9{stroke:#263238;}.cls-10,.cls-17,.cls-23,.cls-24,.cls-28{fill:#263238;}.cls-15{fill:#dbdbdb;}.cls-16{fill:#949494;}.cls-18{fill:#9e9e9e;}.cls-20,.cls-21,.cls-23{opacity:0.2;}.cls-26{fill:#00ff0c;}.cls-27{stroke:#fff;}</style></defs><g id="freepik--background-simple--inject-32"><path class="cls-1" d="M19.83,21.36a6.28,6.28,0,0,0,2-2.2c2.93-5.43,2.27-13.43-3.37-16.87-2.6-1.58-6.35-2.59-9.17-1C7,2.65,5.57,5.14,4.42,7.41a40.4,40.4,0,0,1-2.23,4.28c-1.16,1.73-2.44,4-1.15,6,1.76,2.73,5.09,4,8.1,4.8,3.28.89,7,1,10-.72A7.8,7.8,0,0,0,19.83,21.36Z"/><path class="cls-2" d="M19.83,21.36a6.28,6.28,0,0,0,2-2.2c2.93-5.43,2.27-13.43-3.37-16.87-2.6-1.58-6.35-2.59-9.17-1C7,2.65,5.57,5.14,4.42,7.41a40.4,40.4,0,0,1-2.23,4.28c-1.16,1.73-2.44,4-1.15,6,1.76,2.73,5.09,4,8.1,4.8,3.28.89,7,1,10-.72A7.8,7.8,0,0,0,19.83,21.36Z"/></g><g id="freepik--Picture--inject-32"><g class="cls-3"><rect class="cls-4" x="17.14" y="3.43" width="5.27" height="6.86"/><rect class="cls-4" x="18.1" y="4.69" width="3.34" height="4.34"/></g></g><g id="freepik--Graphics--inject-32"><rect class="cls-5" x="17.44" y="1.43" width="1" height="0.99"/><rect class="cls-5" x="18.75" y="1.43" width="1" height="0.99"/><polyline class="cls-6" points="17.65 1.82 17.82 2.16 18.32 1.61"/><rect class="cls-5" x="2.27" y="15.99" width="1" height="0.99"/><rect class="cls-5" x="3.58" y="15.99" width="1" height="0.99"/><polyline class="cls-6" points="2.49 16.38 2.66 16.72 3.16 16.17"/><rect class="cls-5" x="7.02" y="15.99" width="1" height="0.99"/><rect class="cls-5" x="8.33" y="15.99" width="1" height="0.99"/><polyline class="cls-6" points="7.23 16.38 7.4 16.72 7.91 16.17"/><g class="cls-3"><ellipse class="cls-7" cx="8.47" cy="1.3" rx="0.64" ry="0.64"/><polyline class="cls-8" points="8.65 1.53 8.47 1.3 8.47 0.94"/></g><g class="cls-3"><path d="M20.47,13.51h-.1V13.4h-.12l0,.11h-.08l.09-.59h.14Zm-.22-.19h.09l0-.3Z"/><path d="M21.81,13.05v0a.11.11,0,0,1-.06.11.13.13,0,0,1,.07.13v0a.12.12,0,0,1-.11.14h-.18v-.59h.14C21.77,12.92,21.81,13,21.81,13.05ZM21.62,13v.16h0s.05,0,.05-.06v0s0-.06,0-.06Zm0,.24v.19h.05a.05.05,0,0,0,.06-.06v0c0-.06,0-.07-.07-.07Z"/><path d="M23.17,13.29v.08c0,.1-.05.15-.14.15a.13.13,0,0,1-.15-.15v-.31a.14.14,0,0,1,.15-.15.13.13,0,0,1,.14.15v.06h-.09v-.07s0-.05,0-.05-.05,0-.05.05v.32c0,.05,0,.06.05.06s0,0,0-.06v-.08Z"/><rect class="cls-4" x="19.93" y="13.83" width="0.73" height="0.72"/><rect class="cls-4" x="21.28" y="13.83" width="0.73" height="0.72"/><rect class="cls-4" x="22.64" y="13.83" width="0.73" height="0.72"/></g></g><g id="freepik--Table--inject-32"><line class="cls-9" x1="3.39" y1="22.19" x2="1.85" y2="22.19"/><line class="cls-9" x1="23.5" y1="22.19" x2="3.89" y2="22.19"/></g><rect class="cls-10" x="1.94" y="2.66" width="13.96" height="12.3"/><rect class="cls-11" x="1.68" y="2.36" width="13.96" height="12.3"/><rect class="cls-11" x="12.92" y="6.64" width="0.69" height="0.69"/><rect class="cls-11" x="13.83" y="6.64" width="0.69" height="0.69"/><line class="cls-12" x1="12.64" y1="7.03" x2="9.12" y2="7.03"/><rect class="cls-11" x="12.92" y="8.26" width="0.69" height="0.69"/><rect class="cls-11" x="13.83" y="8.26" width="0.69" height="0.69"/><line class="cls-12" x1="12.64" y1="8.65" x2="9.12" y2="8.65"/><rect class="cls-11" x="12.92" y="9.89" width="0.69" height="0.69"/><rect class="cls-11" x="13.83" y="9.89" width="0.69" height="0.69"/><line class="cls-12" x1="12.64" y1="10.27" x2="9.12" y2="10.27"/><rect class="cls-11" x="6.28" y="6.64" width="0.69" height="0.69"/><rect class="cls-11" x="7.19" y="6.64" width="0.69" height="0.69"/><line class="cls-12" x1="6.01" y1="7.03" x2="2.48" y2="7.03"/><rect class="cls-11" x="6.28" y="8.26" width="0.69" height="0.69"/><rect class="cls-11" x="7.19" y="8.26" width="0.69" height="0.69"/><line class="cls-12" x1="6.01" y1="8.65" x2="2.48" y2="8.65"/><rect class="cls-11" x="6.28" y="9.89" width="0.69" height="0.69"/><rect class="cls-11" x="7.19" y="9.89" width="0.69" height="0.69"/><line class="cls-12" x1="6.01" y1="10.27" x2="2.48" y2="10.27"/><rect class="cls-11" x="2.7" y="12.94" width="0.76" height="0.76"/><rect class="cls-11" x="5.82" y="12.94" width="0.76" height="0.76"/><rect class="cls-11" x="9.06" y="12.94" width="0.76" height="0.76"/><polyline class="cls-13" points="7.42 6.87 7.54 7.11 8.11 6.56"/><polyline class="cls-13" points="7.42 8.48 7.54 8.71 8.11 8.16"/><polyline class="cls-13" points="6.43 10.16 6.55 10.39 7.13 9.85"/><polyline class="cls-13" points="14.02 6.85 14.14 7.09 14.71 6.54"/><polyline class="cls-13" points="13.06 8.49 13.18 8.73 13.75 8.18"/><polyline class="cls-13" points="13.06 10.14 13.18 10.38 13.75 9.83"/><rect class="cls-14" x="1.68" y="3.3" width="13.96" height="0.99"/><rect class="cls-15" x="15.11" y="2.36" width="0.53" height="12.3"/><rect class="cls-16" x="15.11" y="4.21" width="0.53" height="2.37"/><rect class="cls-15" x="1.68" y="2.36" width="13.96" height="0.93"/><rect class="cls-11" x="2.39" y="2.64" width="5.5" height="0.39"/><line class="cls-12" x1="14.81" y1="2.65" x2="15.3" y2="2.65"/><line class="cls-12" x1="14.81" y1="2.86" x2="15.3" y2="2.86"/><line class="cls-12" x1="14.81" y1="3.06" x2="15.3" y2="3.06"/><path class="cls-17" d="M3.3,12.75H3.17l0-.13H3l0,.13H2.88L3,12h.17ZM3,12.52h.12l-.06-.38Z"/><path class="cls-17" d="M6.37,12.18v0a.17.17,0,0,1-.08.16.15.15,0,0,1,.09.16v.06c0,.11-.06.17-.18.17H6V12h.18C6.31,12,6.37,12.06,6.37,12.18Zm-.24-.07v.2h0s.07,0,.07-.08v0c0-.06,0-.08-.06-.08Zm0,.31v.23H6.2s.06,0,.06-.08v-.06c0-.07,0-.09-.08-.09Z"/><path class="cls-17" d="M9.64,12.48v.1a.17.17,0,0,1-.18.19c-.11,0-.17-.07-.17-.19v-.39c0-.12.06-.19.17-.19a.17.17,0,0,1,.18.19v.07H9.53v-.08c0-.06,0-.08-.06-.08s-.06,0-.06.08v.4c0,.06,0,.08.06.08s.06,0,.06-.08v-.1Z"/><line class="cls-12" x1="2.53" y1="11.61" x2="11.61" y2="11.61"/><path class="cls-17" d="M6.91,5.1v.34c0,.15-.07.21-.2.21s-.19-.06-.19-.21V5.09a.18.18,0,0,1,.19-.2A.18.18,0,0,1,6.91,5.1Zm-.25,0v.38s0,.07,0,.07,0,0,0-.07V5.08s0-.07,0-.07S6.66,5,6.66,5.08Z"/><path class="cls-17" d="M7,5.64V4.9h.17l.1.46h0c0-.1,0-.24,0-.34V4.9h.14v.74H7.21c0-.07-.09-.46-.1-.48h0c0,.09,0,.24,0,.35v.13Z"/><path class="cls-17" d="M7.46,4.9h.15v.61h.18v.13H7.46Z"/><path class="cls-17" d="M8,4.9v.74H7.84V4.9Z"/><path class="cls-17" d="M8.07,5.64V4.9h.16c0,.09.1.42.11.46h0c0-.1,0-.24,0-.34V4.9h.13v.74H8.3c0-.07-.1-.46-.1-.48h0c0,.09,0,.24,0,.35v.13Z"/><path class="cls-17" d="M8.85,5.31H8.7v.2h.18l0,.13H8.55V4.9h.31V5H8.7v.17h.15Z"/><path class="cls-17" d="M9.37,5.31H9.22v.2H9.4l0,.13H9.07V4.9h.31V5H9.22v.17h.15Z"/><path class="cls-17" d="M9.69,5.64s0-.22,0-.26h0s-.05.24-.05.26H9.43l.11-.37L9.43,4.9h.16s0,.21.05.23h0s0-.22,0-.23h.14l-.1.35.11.39Z"/><path class="cls-17" d="M10,5.46l0,.18H9.84L10,4.9h.22l.11.74h-.15l0-.18Zm.08-.12c0-.1,0-.24,0-.31h0s0,.21,0,.31Z"/><path class="cls-17" d="M10.72,5.4V5h0c0,.15-.05.45-.07.61h-.13c0-.16,0-.47-.06-.61h0c0,.09,0,.25,0,.38v.23h-.13V4.9h.21c0,.14,0,.32.05.42h0c0-.1,0-.26.06-.42h.21v.74h-.14Z"/><path class="cls-17" d="M7.88,3.78h-.1v.15h.11V4H7.72V3.55h.16V3.6h-.1v.13h.1Z"/><path class="cls-17" d="M8,3.65l0,.11H8a.51.51,0,0,1,0-.11h.06L8,3.8,8.11,4H8a1.11,1.11,0,0,0,0-.13H8L8,4H7.9L8,3.81,7.9,3.65Z"/><path class="cls-17" d="M8.12,3.55h.1c.06,0,.1,0,.1.11v0c0,.07,0,.12-.11.12h0V4H8.12Zm.06.2h0s0,0,0-.07v0s0-.06,0-.06h0Z"/><path class="cls-17" d="M8.35,3.76V3.65H8.4V3.7a.09.09,0,0,1,.08-.06v.08s-.07,0-.07.08V4H8.35Z"/><path class="cls-17" d="M8.69,3.75v.13c0,.08,0,.11-.1.11s-.1,0-.1-.11V3.75a.1.1,0,1,1,.2,0Zm-.14,0v.14s0,0,0,0,0,0,0-.06V3.75s0-.06,0-.06S8.55,3.71,8.55,3.75Z"/><path class="cls-17" d="M8.9,3.88h0c0,.06,0,.11-.09.11s-.09-.05-.09-.12V3.75c0-.06,0-.11.09-.11s.09.06.09.1H8.84s0-.05,0-.05,0,0,0,.05v.15s0,0,0,0,0,0,0,0H8.9Z"/><path class="cls-17" d="M8.91,3.65H9V3.57H9v.08h0V3.7H9v.21s0,0,0,0h0V4H9S9,4,9,3.92V3.7h0Z"/><path class="cls-17" d="M9.26,3.75v.13c0,.08,0,.11-.1.11s-.1,0-.1-.11V3.75a.1.1,0,1,1,.2,0Zm-.14,0v.14s0,0,0,0,0,0,0-.06V3.75s0-.06,0-.06S9.12,3.71,9.12,3.75Z"/><path class="cls-17" d="M9.29,3.76V3.65h.06V3.7a.09.09,0,0,1,.08-.06v.08s-.08,0-.08.08V4H9.29Z"/><g id="freepik--Character--inject-32"><path class="cls-18" d="M17.58,22.17l.33-5,.24-2.36-.66-.74-.34-.24a2.83,2.83,0,0,1-.8.5l-.65.18a12.92,12.92,0,0,0-1.23,3.08c-.09,1-.25,4.52-.25,4.52h3.36Z"/><path class="cls-9" d="M16,18.09s-.06,0,.05-.32"/><path class="cls-10" d="M15.88,14.51a9.71,9.71,0,0,1,.1,1.21,1.43,1.43,0,0,0,.61-.61,5.91,5.91,0,0,0,.39-.8Z"/><path class="cls-19" d="M17.58,22.17l.3-4.45a3.78,3.78,0,0,1-1.5.4,3.94,3.94,0,0,1-1.7-.57l-.21.08h0c-.09,1-.24,4.52-.24,4.52h3.35Z"/><path class="cls-1" d="M17.09,19.68c0,1.15,0,2.25.05,2.49h2.23c0-.35.22-2.58.32-3.38s.82-2.17.82-2.64.14-.39-.5-.73-2.08-1.06-2.28-1.15a1.88,1.88,0,0,1-.41-.31,11.46,11.46,0,0,1,.05,1.66C17.35,16.83,17.09,18.38,17.09,19.68Z"/><g class="cls-20"><path d="M17.32,14c0,.21,0,.42.05.63V14Z"/><path d="M20.26,16.86V17l0-.14v0h0l0-.05h0v-.63h.2v-.05h-.2v-.54l0,0v.57h-.54V15.5h.42l-.1-.05h-.32v-.17l0,0v.19h-.54V15l-.05,0v.49h-.54v-.63h.27l-.1-.05h-.17v-.08l-.05,0v.11H18v-.38l-.06,0v.41h-.53v.05h.53v.64h-.52v.05h.52v.63h-.53v-.24c0,.25,0,.51-.05.77v.15h0v.05h0v.64h-.08v.05h.09v.63h-.15v.05h.15v.64h-.2v.05h.2v.63h-.23v.05h.23v.64H17.1v.05h.22v.63h-.21v0h.21v1.21h.05V21h.53v1.2H18V21h.53v1.2h.05V21h.54v1.2h.05V21h.35v0h-.35v-.63h.41a.43.43,0,0,1,0-.05h-.42V19.6h.48v-.05h-.48v-.63h.54V19l0-.2,0-.17v-.39h.1v-.05h-.11v-.63h.33l0-.05h-.35v-.63Zm-.54-.68h.54v.63h-.54ZM17.9,20.92h-.53v-.63h.53Zm0-.68h-.53V19.6h.53Zm0-.69h-.53v-.63h.53Zm0-.68h-.53v-.64h.53Zm0-.69h-.53v-.63h.53Zm0-.68h-.53v-.64h.53Zm0-.69h-.53v-.63h.53Zm.59,4.11H18v-.63h.53Zm0-.68H18V19.6h.53Zm0-.69H18v-.63h.53Zm0-.68H18v-.64h.53Zm0-.69H18v-.63h.53Zm0-.68H18v-.64h.53Zm0-.69H18v-.63h.53Zm0-.68H18V15.5h.53Zm0-.69H18v-.63h.53Zm.59,5.48h-.54v-.63h.54Zm0-.68h-.54V19.6h.54Zm0-.69h-.54v-.63h.54Zm0-.68h-.54v-.64h.54Zm0-.69h-.54v-.63h.54Zm0-.68h-.54v-.64h.54Zm0-.69h-.54v-.63h.54Zm0-.68h-.54V15.5h.54Zm.59,2.74h-.54v-.64h.54Zm0-.69h-.54v-.63h.54Zm0-.68h-.54v-.64h.54Zm0-.69h-.54v-.63h.54Zm0-.68h-.54V15.5h.54Z"/></g><path class="cls-9" d="M17.09,19.68c0,1.15,0,2.25.05,2.49h2.23c0-.35.22-2.58.32-3.38s.82-2.17.82-2.64.14-.39-.5-.73-2.08-1.06-2.28-1.15a1.88,1.88,0,0,1-.41-.31,11.46,11.46,0,0,1,.05,1.66C17.35,16.83,17.09,18.38,17.09,19.68Z"/><path class="cls-10" d="M17.32,14a11.22,11.22,0,0,1,.05,1.65c0,.31,0,.63-.05,1a2,2,0,0,1,.31-.36c.05,0,.34.25.57.28s.33,0,.07-.23a4,4,0,0,1-.44-1.64,2.49,2.49,0,0,0-.09-.37h0A1.87,1.87,0,0,1,17.32,14Z"/><path class="cls-9" d="M18.8,19.47l.29-.14.06.47a5.7,5.7,0,0,1-1.39.42l-.55,0,0-.45"/><path class="cls-9" d="M18.35,19.65l.3-.11"/><path class="cls-9" d="M17.39,19.77a6.65,6.65,0,0,0,.78-.07"/><line class="cls-9" x1="19.15" y1="19.8" x2="19.18" y2="20.16"/><path class="cls-1" d="M12.29,22.17h2.52c0-.19.08-2.67.13-3.94a11.6,11.6,0,0,1,1-3.31s.12-.29,0-.41-.43-.08-.66.1-2.36,1.09-2.48,1.22-.11.55-.16,1.06-.89,4-.89,4a1.16,1.16,0,0,0-.31.11c-.08.05-.08.2-.08.2a2,2,0,0,1,.41.18C12,21.52,12.25,22.08,12.29,22.17Z"/><path class="cls-21" d="M15.55,15.5v.25s0-.09,0-.13V15.5h.05l0-.06H15.6v-.63h.32a.07.07,0,0,0,0-.05H15.6v-.32h0v.31H15v0l0,0h0l-.1.05H15v.64h-.54V15l-.05,0v.41h-.53v-.16l-.06,0v.13h-.29l-.11.06h.4v.63h-.53v-.57l-.05,0v.55h-.54V16a3.53,3.53,0,0,0-.05.56v.25h0v.05h0v.64h-.14v.05h.15v.63h-.29v.05h.3v.64h-.45v.05h.46v.63h-.54v-.28l-.05.22v.06h0l0,.05h0v.64h-.18v.05H12v.63h-.44l-.15,0h0v.28l.05,0V21H12v.71l.05.08V21h.54v1.21h.05V21h.54v1.2h.05V21h.53v1.2h.06V21h.53v1.2h.05V21h.42v0h-.42v-.63h.45v-.05h-.45V19.6h.47v-.05h-.47v-.63h.49v-.05h-.49v-.64h.52v-.05h-.52v-.63H15v.37c0-.1,0-.21,0-.33v0h0V17.5h0v-.63h.17l0-.06H15v-.63h.39s0,0,0-.05H15V15.5ZM15,14.81h.54v.64H15Zm-2.4,6.11h-.54v-.63h.54Zm0-.68h-.54V19.6h.54Zm.59.68h-.54v-.63h.54Zm0-.68h-.54V19.6h.54Zm0-.69h-.54v-.63h.54Zm0-.68h-.54v-.64h.54Zm0-.69h-.54v-.63h.54Zm0-.68h-.54v-.63h.54Zm0-.69h-.54v-.63h.54Zm.58,4.11h-.53v-.63h.53Zm0-.68h-.53V19.6h.53Zm0-.69h-.53v-.63h.53Zm0-.68h-.53v-.64h.53Zm0-.69h-.53v-.63h.53Zm0-.68h-.53v-.63h.53Zm0-.69h-.53v-.63h.53Zm.59,4.11h-.53v-.63h.53Zm0-.68h-.53V19.6h.53Zm0-.69h-.53v-.63h.53Zm0-.68h-.53v-.64h.53Zm0-.69h-.53v-.63h.53Zm0-.68h-.53v-.63h.53Zm0-.69h-.53v-.63h.53Zm0-.68h-.53V15.5h.53ZM15,17.5h-.54v-.63H15Zm0-.69h-.54v-.63H15Zm0-.68h-.54V15.5H15Z"/><path class="cls-9" d="M12.29,22.17h2.52c0-.19.08-2.67.13-3.94a11.6,11.6,0,0,1,1-3.31s.12-.29,0-.41-.43-.08-.66.1-2.36,1.09-2.48,1.22-.11.55-.16,1.06-.89,4-.89,4a1.16,1.16,0,0,0-.31.11c-.08.05-.08.2-.08.2a2,2,0,0,1,.41.18C12,21.52,12.25,22.08,12.29,22.17Z"/><path class="cls-10" d="M11.3,21.2a3.51,3.51,0,0,1,.41.18c.31.15.59.81.59.81h.5a.9.9,0,0,0-.24-.84,1.14,1.14,0,0,0-.87-.45,1.47,1.47,0,0,0-.31.1C11.3,21.05,11.3,21.2,11.3,21.2Z"/><path class="cls-10" d="M15.57,14.45A7.7,7.7,0,0,1,15,15.7c-.28.4-.8.73-.62.89s.69-.33.69-.33.13.35.16.45h0a16.18,16.18,0,0,1,.67-1.8s.12-.29,0-.41A.32.32,0,0,0,15.57,14.45Z"/><path class="cls-9" d="M13.7,16.89a1.27,1.27,0,0,0,0-.28"/><path class="cls-9" d="M13.3,22.24s.07-1.62.07-2.56a20,20,0,0,1,.3-2.51"/><path class="cls-9" d="M13.43,19.32a5.76,5.76,0,0,0,.61.16l.61.07,0,.58L14.12,20c-.46-.15-.75-.28-.75-.28"/><path class="cls-9" d="M14.61,20.13s0,1.12,0,1.27-.46.05-.46.05"/><path class="cls-18" d="M15,13.91a5.38,5.38,0,0,0,.91,1c.43.31.8-.13,1.09-.61a5.91,5.91,0,0,0,.62-1.23A1.66,1.66,0,0,0,17,11.44c-.58-.53-1.92-1.33-2.26-.91a2.5,2.5,0,0,0-.43,2.09A4,4,0,0,0,15,13.91Z"/><path class="cls-22" d="M14.77,12.43a1.06,1.06,0,0,1,.56,0"/><path class="cls-17" d="M15.19,12.86c0,.08,0,.15,0,.16s-.08,0-.1-.14,0-.15.05-.16S15.17,12.77,15.19,12.86Z"/><path class="cls-17" d="M16.61,12.88c0,.08,0,.15,0,.16s-.09,0-.1-.14,0-.15,0-.16S16.59,12.8,16.61,12.88Z"/><path class="cls-9" d="M15.55,14a1.63,1.63,0,0,0,.58.08,1.19,1.19,0,0,0,.62-.26"/><path class="cls-10" d="M14.82,10.88s.71,1.6.8,1.65.27-.49.27-.49a1.53,1.53,0,0,0,.53.57c.29.14.38-.08.38-.08a4.78,4.78,0,0,1,.42.26l.11.09.11.39s-.33,1.08-.22,1.21.73,0,.73,0-.15.22.05.22.55,0,1.06-.64a3.75,3.75,0,0,0,.56-1.78s.24.26.27-.07a2.22,2.22,0,0,0-.29-.88s.49.49.44,0a2.81,2.81,0,0,0-.44-1.21,5.86,5.86,0,0,0-.78-.51s.27,0,.07-.35-.94-.39-1.2-.39-.83.08-.83.08.36-.68,0-.72-1,.68-1,.68-.67-.53-.87-.42a.17.17,0,0,0-.06.27s-.87.06-1.12.44a.42.42,0,0,0,.05.59s-1.56,1.06-1.31,1.45.69,0,.69,0a8.92,8.92,0,0,0-.54,1.7c.09.11.52-.05.52-.05s0,1.28.31,1.41.4-.11.4-.11a.86.86,0,0,0,.57.2c.4,0,.54-.44.54-.44A5.24,5.24,0,0,1,14.56,12,1.94,1.94,0,0,1,14.82,10.88Z"/><path class="cls-18" d="M15.71,12.73s-.16.82,0,1,.58,0,.61-.1"/><ellipse class="cls-9" cx="15.05" cy="12.78" rx="0.63" ry="0.46"/><ellipse class="cls-9" cx="16.57" cy="12.74" rx="0.63" ry="0.46"/><path class="cls-9" d="M15.71,12.73a.17.17,0,0,1,.23,0"/><path class="cls-18" d="M10.45,21.5s.8-.23,1.05-.27.74.41.82.66,0,.3,0,.3l-1.65-.06Z"/><path class="cls-18" d="M10.74,21.42s.61.23.76.32a.23.23,0,0,1,0,.36.89.89,0,0,1-.38.18h-.42a4,4,0,0,0-.5,0l-.61,0-.13-.09s-.26.07-.46.15-.14-.09,0-.21.53-.42.59-.45.83-.26.83-.26Z"/><path class="cls-18" d="M11,21.48a2.74,2.74,0,0,0-.5-.18,4.45,4.45,0,0,0-1,.33,1.37,1.37,0,0,0-.14.84c.07.05.14-.09.15-.18s.23-.57.23-.57l-.15.77s.06.12.12,0,.44-.82.47-.87a.41.41,0,0,1,.13-.1s-.07.33-.13.64,0,.41.07.42.14-.19.19-.3.24-.71.24-.71"/><path class="cls-18" d="M11.4,21.78s-.45.47-.51.57-.06.12.11.12a2.42,2.42,0,0,0,.72-.37c0-.05,0-.18-.07-.27A.28.28,0,0,0,11.4,21.78Z"/><path class="cls-18" d="M14.24,21.73a4.56,4.56,0,0,0-.75.3c-.15.11-.37.23-.32.27s.2,0,.24,0a1.48,1.48,0,0,1,.26-.07l.45-.27C14.32,21.8,14.47,21.67,14.24,21.73Z"/><path class="cls-18" d="M17.59,20.71s-1.69.31-2.3.52a4.13,4.13,0,0,0-1.16.57c-.3.22-.92.62-.83.69s.41-.18.47-.23a3.33,3.33,0,0,1,.44-.21l.27-.14s-.4.49-.54.61,0,.2.06.17a1.34,1.34,0,0,0,.31-.25L15,22a4.25,4.25,0,0,1-.4.48c-.12.11.15.2.2.11a2.35,2.35,0,0,1,.32-.32,5.73,5.73,0,0,0,.56-.32l.38-.34,2,.16s.13-.07.05-.48A.88.88,0,0,0,17.59,20.71Z"/><path class="cls-1" d="M19,17.56l1,2.42-1.59.55.44,1.3s1.15,0,2.05,0,1.53-.59,1.39-1.23-.69-1.56-1.12-2.67-.29-1.76-.49-2.1a1.19,1.19,0,0,0-.76-.42l-.3-.06"/><path class="cls-23" d="M22.08,21.23V21h.13a.43.43,0,0,0,0,0h-.14v-.63h.07l0-.05h-.05v-.16L22,20v.29h-.53V19.6h.38l0-.05h-.36v-.63h.07s0,0,0-.05h-.05v-.11a.54.54,0,0,1,0-.11v.22H20.9v-.64h.36a.08.08,0,0,1,0-.05H20.9v-.63H21V17.5H20.9v-.29c0-.08,0-.16,0-.23v.52h-.54v-.63h.52v-.06h-.51v-.63h.42v-.05h-.41v-.62l-.14-.07h-.45v-.11h0v.12h-.15v.06h.16v.63h-.33l0,.05h.35v.63h-.51l0,.06h.53v.63h-.54v-.6l-.05.19v.41H19v.05h.12v.32l.05.12v-.44h.54v.63h-.46l0,.05h.44v.64h-.18l0,.05h.16v.39l0,.13v-.52h.54v.63h-.49l0,.05h.47v.64h-.54v-.18l0,0v.16h-.46l-.14.05h0v.63h-.54v-.46l-.05,0v.44h0l.06.19V21h.54v.86h.05V21h.54v.85h0V21h.54v.84h0V21h.54v.81h0V21h.54v.7l0,0V21H22v.32Zm-2.41-.31h-.54v-.63h.54Zm.59,0h-.54v-.63h.54Zm0-2.05h-.54v-.64h.54Zm0-.69h-.54v-.63h.54Zm0-.68h-.54v-.63h.54Zm0-.68h-.54v-.64h.54Zm0-.69h-.54V15.5h.54Zm.59,4.79h-.54v-.63h.54Zm0-.68h-.54V19.6h.54Zm0-.69h-.54v-.63h.54Zm0-.68h-.54v-.64h.54Zm0-.69h-.54v-.63h.54Zm.59,2.74H20.9v-.63h.54Zm0-.68H20.9V19.6h.54Zm0-.69H20.9v-.63h.54Zm0,1.37v-.63H22v.63Z"/><path class="cls-9" d="M19,17.56l1,2.42-1.59.55.44,1.3s1.15,0,2.05,0,1.53-.59,1.39-1.23-.69-1.56-1.12-2.67-.29-1.76-.49-2.1a1.19,1.19,0,0,0-.76-.42l-.3-.06"/><path class="cls-9" d="M20.91,19.74a8.08,8.08,0,0,0-1,.24A3.71,3.71,0,0,1,21,19.5"/><path class="cls-9" d="M21.36,19.72a.74.74,0,0,0-.21,0"/><path class="cls-10" d="M18.81,20.34a2.16,2.16,0,0,1,.47.61,2.07,2.07,0,0,1,0,1.06c-.07.07-1.41.06-1.63-.21-.06-.07.34-.23.14-.63s-.29-.42-.29-.42-.16-.09.14-.29S18.65,20.13,18.81,20.34Z"/></g><g id="freepik--Drink--inject-32"><polygon class="cls-24" points="22 23.08 20.67 23.08 20.51 20.48 22.16 20.48 22 23.08"/><rect class="cls-25" x="20.43" y="20.49" width="1.81" height="0.38"/><polygon class="cls-25" points="22.24 20.5 20.43 20.5 20.61 20.28 22.06 20.28 22.24 20.5"/><polygon class="cls-25" points="22.05 22.32 22.11 21.29 20.56 21.29 20.62 22.32 22.05 22.32"/></g><g id="freepik--Device--inject-32"><polygon class="cls-24" points="14.35 23.25 15.99 22.83 15.99 23.05 14.35 23.5 14.35 23.25"/><polygon class="cls-25" points="15.99 22.83 7.44 22.83 5.79 23.25 14.35 23.25 15.99 22.83"/><rect class="cls-25" x="5.79" y="18.36" width="8.56" height="5.14"/><path class="cls-24" d="M14.35,19.11c-1.86.08-3,1.79-4.62,2.92a8.08,8.08,0,0,1-3.94,1.25v.22h8.56Z"/><rect class="cls-19" x="5.79" y="23.26" width="8.56" height="0.24"/></g><path class="cls-26" d="M3.25,21.56s-.71-1.13-.14-1.77a1,1,0,0,1,1.69.26,3,3,0,0,1-.21,1.58Z"/><path class="cls-26" d="M3.28,20.26a1.28,1.28,0,0,1-.72-.37c-.14-.21-.16-.68.24-.68s.55.7.55.7l0,.26"/><path class="cls-26" d="M3.64,19.82a1.26,1.26,0,0,1-.47-.65c0-.25.16-.68.53-.5s.17.87.17.87l-.1.24"/><path class="cls-26" d="M4.08,19.94a1.24,1.24,0,0,1,0-.8c.12-.22.52-.48.72-.13s-.35.82-.35.82L4.2,20"/><path class="cls-26" d="M4.22,20.79A1.24,1.24,0,0,1,4.47,20c.19-.18.66-.28.72.12s-.61.65-.61.65l-.26.06"/><line class="cls-27" x1="2.62" y1="19.6" x2="2.7" y2="19.73"/><line class="cls-27" x1="2.85" y1="19.91" x2="2.97" y2="20.01"/><line class="cls-27" x1="2.71" y1="19.37" x2="2.83" y2="19.55"/><line class="cls-27" x1="3.01" y1="19.7" x2="3.14" y2="19.95"/><line class="cls-27" x1="3.33" y1="19.09" x2="3.37" y2="19.23"/><line class="cls-27" x1="3.49" y1="19.48" x2="3.57" y2="19.59"/><line class="cls-27" x1="3.45" y1="18.82" x2="3.56" y2="19.05"/><line class="cls-27" x1="3.05" y1="20.42" x2="3.09" y2="20.63"/><line class="cls-27" x1="3.16" y1="20.82" x2="3.2" y2="20.99"/><line class="cls-27" x1="3.27" y1="20.43" x2="3.32" y2="20.66"/><line class="cls-27" x1="3.42" y1="20.82" x2="3.45" y2="20.99"/><line class="cls-27" x1="3.5" y1="20.14" x2="3.57" y2="20.46"/><line class="cls-27" x1="3.66" y1="20.76" x2="3.67" y2="20.91"/><line class="cls-27" x1="3.79" y1="20.04" x2="3.84" y2="20.33"/><line class="cls-27" x1="3.84" y1="20.64" x2="3.87" y2="20.95"/><line class="cls-27" x1="4.12" y1="20.15" x2="4.12" y2="20.4"/><line class="cls-27" x1="4.08" y1="20.72" x2="4.1" y2="20.91"/><line class="cls-27" x1="4.41" y1="18.97" x2="4.35" y2="19.1"/><line class="cls-27" x1="4.33" y1="19.26" x2="4.27" y2="19.46"/><line class="cls-27" x1="4.66" y1="19.23" x2="4.57" y2="19.41"/><line class="cls-27" x1="4.37" y1="19.62" x2="4.27" y2="19.73"/><line class="cls-27" x1="4.15" y1="19.22" x2="4.12" y2="19.37"/><line class="cls-27" x1="4.66" y1="20.04" x2="4.53" y2="20.24"/><line class="cls-27" x1="4.45" y1="20.37" x2="4.38" y2="20.55"/><line class="cls-27" x1="4.56" y1="20.64" x2="4.76" y2="20.52"/><line class="cls-27" x1="4.89" y1="20.04" x2="4.79" y2="20.21"/><line class="cls-27" x1="4.99" y1="20.23" x2="4.85" y2="20.33"/><rect class="cls-28" x="2.89" y="21.17" width="1.95" height="1.93"/></svg>